# xmcd
#
# Track frame offsets: 
#        150
#        19949
#        32965
#        47586
#        67608
#        90248
#        112612
#        133006
#        150595
#        177847
#        196661
#        221341
#
# Disc length: 3166 seconds
#
# Revision: 0
# Processed by: cddbd v1.5.2PL0 Copyright (c) Steve Scherf et al.
# Submitted via: ExactAudioCopy v0.99pb3
#
DISCID=880c5c0c
DTITLE=Pete Anderson - Even Things Up
DYEAR=2009
DGENRE=Blues
TTITLE0=Honky Tonk Girl
TTITLE1=Booker Twine
TTITLE2=That's How Trouble Starts
TTITLE3=Even Things Up
TTITLE4=Wes' Side Blues
TTITLE5=One And Only Lonely Fool
TTITLE6=Stop Me
TTITLE7=Dogbone Shuffle
TTITLE8=Still In Love
TTITLE9=Room With A View
TTITLE10=Blue Guitar
TTITLE11=Prophet For A Profit
EXTD=
EXTT0=
EXTT1=
EXTT2=
EXTT3=
EXTT4=
EXTT5=
EXTT6=
EXTT7=
EXTT8=
EXTT9=
EXTT10=
EXTT11=
PLAYORDER=
